<?xml version="1.0" encoding="iso-8859-1"?>
<!-- Generator: Adobe Illustrator 19.0.0, SVG Export Plug-In . SVG Version: 6.00 Build 0)  -->
<svg version="1.1" id="Capa_1" xmlns="http://www.w3.org/2000/svg" xmlns:xlink="http://www.w3.org/1999/xlink" x="0px" y="0px"
	 viewBox="0 0 512 512" style="enable-background:new 0 0 512 512;" xml:space="preserve">
<g>
	<g>
		<path d="M356.072,397.435c-0.841-1.954-2.046-3.615-3.614-4.985c-1.57-1.368-3.46-2.555-5.674-3.56
			c-2.214-1.005-4.694-1.927-7.438-2.764c-0.617-0.168-1.205-0.349-1.765-0.545c-0.561-0.195-1.093-0.348-1.597-0.461v-7.54
			c1.568,0.28,3.123,0.685,4.665,1.215c1.541,0.531,2.927,1.103,4.161,1.717c1.457,0.67,2.802,1.397,4.035,2.178l7.06-13.488
			c-1.177-0.557-2.466-1.158-3.866-1.801c-1.401-0.641-2.9-1.257-4.497-1.843s-3.265-1.102-5.001-1.55
			c-1.737-0.447-3.53-0.782-5.379-1.005v-8.545h-6.724v8.461c-2.635,0.28-5.114,0.922-7.439,1.927
			c-2.326,1.005-4.357,2.345-6.094,4.021c-1.737,1.676-3.11,3.673-4.118,5.99c-1.009,2.318-1.513,4.985-1.513,8.001
			c0,2.178,0.294,4.105,0.882,5.78c0.588,1.676,1.498,3.17,2.732,4.482c1.232,1.313,2.801,2.486,4.707,3.518
			c1.904,1.034,4.174,1.998,6.808,2.89c1.736,0.615,3.474,1.145,5.211,1.592v7.372c-2.018-0.278-3.993-0.766-5.927-1.465
			c-1.933-0.698-3.629-1.41-5.085-2.136c-1.738-0.837-3.362-1.73-4.875-2.681l-7.06,14.326c3.026,1.788,6.443,3.267,10.254,4.44
			c3.81,1.173,7.649,1.927,11.515,2.262v10.304h6.724v-10.137c2.577-0.167,5.071-0.628,7.481-1.382
			c2.408-0.754,4.552-1.87,6.43-3.351c1.877-1.479,3.39-3.378,4.539-5.697c1.148-2.317,1.723-5.123,1.723-8.419
			C357.333,401.764,356.913,399.391,356.072,397.435z M331.613,383.696c-1.122-0.447-1.962-0.935-2.521-1.466
			c-0.561-0.53-0.841-1.215-0.841-2.052c0-1.619,1.12-2.568,3.362-2.849V383.696z M338.842,407.907
			c-0.561,0.448-1.513,0.727-2.858,0.838v-6.2c1.12,0.447,2.017,0.963,2.69,1.55c0.672,0.586,1.009,1.271,1.009,2.053
			C339.683,406.874,339.402,407.461,338.842,407.907z"/>
	</g>
</g>
<g>
	<g>
		<path d="M421,120.211V80.907l16.827-0.93l-1.654-29.955L421,50.861V0H91v69.093l-16.828,0.93l1.655,29.955L91,99.139v21.072
			C57.489,122.776,31,150.843,31,185v262c0,35.841,29.159,65,65,65h320c35.841,0,65-29.159,65-65V185
			C481,150.843,454.511,122.776,421,120.211z M121,30h270v22.518L121,67.435V30z M121,97.482l270-14.917V120H121V97.482z
			 M242.729,392c0.761,0.116,1.525,0.22,2.292,0.316C245.01,392.876,245,393.437,245,394c0,9.785,1.607,19.201,4.568,28H121v-30
			H242.729z M151,362v-30h21.243c3.596,11.128,9.35,21.293,16.77,30H151z M313.91,308.092
			c-28.789,6.393-52.316,26.924-62.886,53.908h-5.691C218.432,356.976,198,333.337,198,305c0-31.981,26.019-58,58-58
			s58,26.019,58,58C314,306.033,313.964,307.063,313.91,308.092z M333,336c31.981,0,58,26.019,58,58c0,31.981-26.019,58-58,58
			c-31.981,0-58-26.019-58-58C275,362.019,301.019,336,333,336z M451,447c0,19.299-15.701,35-35,35h-83H148v-30h118.878
			c16.14,18.378,39.798,30,66.122,30c48.523,0,88-39.477,88-88c0-44.807-33.662-81.898-77.025-87.317
			c0.011-0.561,0.025-1.122,0.025-1.683c0-48.523-39.477-88-88-88c-47.519,0-86.355,37.861-87.943,85H121v60H91v90h27v30H96
			c-19.299,0-35-15.701-35-35V185c0-19.299,15.701-35,35-35h320c19.299,0,35,15.701,35,35V447z"/>
	</g>
</g>
<g>
</g>
<g>
</g>
<g>
</g>
<g>
</g>
<g>
</g>
<g>
</g>
<g>
</g>
<g>
</g>
<g>
</g>
<g>
</g>
<g>
</g>
<g>
</g>
<g>
</g>
<g>
</g>
<g>
</g>
</svg>
